<?xml version="1.0" encoding="utf-8"?>
<!-- Generator: Adobe Illustrator 17.0.0, SVG Export Plug-In . SVG Version: 6.00 Build 0)  -->
<!DOCTYPE svg PUBLIC "-//W3C//DTD SVG 1.1//EN" "http://www.w3.org/Graphics/SVG/1.1/DTD/svg11.dtd">
<svg version="1.1" id="Layer_1" xmlns="http://www.w3.org/2000/svg" xmlns:xlink="http://www.w3.org/1999/xlink" x="0px" y="0px"
	 width="50px" height="50px" viewBox="0 0 50 50" enable-background="new 0 0 50 50" xml:space="preserve">
<path fill="#3E2A47" d="M31.595,26.103c2.978-1.977,4.947-5.358,4.947-9.193c0-6.083-4.948-11.031-11.031-11.031
	c-6.083,0-11.031,4.948-11.031,11.031c0,3.835,1.969,7.216,4.947,9.193C12.687,28.59,7.86,35.058,7.86,42.65v1.471h35.3V42.65
	C43.16,35.058,38.333,28.59,31.595,26.103z M17.421,16.91c0-4.461,3.63-8.09,8.09-8.09c4.46,0,8.09,3.629,8.09,8.09
	S29.97,25,25.51,25C21.05,25,17.421,21.371,17.421,16.91z M10.875,41.179c0.74-7.422,7.021-13.238,14.635-13.238
	c7.614,0,13.895,5.816,14.635,13.238H10.875z"/>
</svg>
